<svg xmlns="http://www.w3.org/2000/svg" width="1024" height="1024" viewBox="0 0 1024 1024">
<path d="M 442 822 442 823 441 824 441 825 440 826 440 827 439 828 439 829 438 830 438 831 437 832 437 833 436 834 436 835 435 836 435 837 434 838 434 839 433 840 433 841 432 842 432 843 431 844 431 845 430 846 430 848 429 849 429 850 428 851 428 852 427 853 427 854 426 855 426 856 425 857 425 858 424 859 424 860 423 861 423 862 422 863 601 863 601 862 600 861 600 860 599 859 599 858 598 857 598 856 597 855 597 854 596 853 596 852 595 851 595 850 594 849 594 848 593 847 593 846 592 845 592 844 591 843 591 841 590 840 590 839 589 838 589 837 588 836 588 835 587 834 587 833 586 832 586 830 585 829 585 828 584 827 584 826 583 825 583 824 582 823 582 822 Z" fill="black"/>
<path d="M 467 765 467 767 466 768 466 769 465 770 465 771 464 772 464 773 463 774 463 775 462 776 462 777 461 778 461 779 460 780 460 781 459 782 459 784 457 786 457 788 456 789 456 790 455 791 455 792 454 793 454 795 455 795 456 794 568 794 569 795 570 795 570 794 568 792 568 791 567 790 567 788 566 787 566 786 565 785 565 784 564 783 564 782 563 781 563 780 562 779 562 778 561 777 561 776 560 775 560 774 559 773 559 772 558 771 558 770 557 769 557 768 556 767 556 766 555 765 Z" fill="black"/>
<path d="M 488 720 488 722 487 723 487 724 486 725 486 726 485 727 485 728 484 729 484 730 483 731 483 732 482 733 482 734 481 735 481 736 480 737 480 738 479 739 479 740 478 741 478 742 545 742 545 740 544 739 544 738 543 737 543 736 542 735 542 734 540 732 540 731 539 730 539 729 538 728 538 727 537 726 537 725 536 724 536 723 535 722 535 721 534 720 Z" fill="black"/>
<path d="M 502 689 502 690 501 691 501 692 500 693 500 694 499 695 499 696 498 697 498 699 497 700 497 701 496 702 496 703 527 703 527 702 526 701 526 699 525 698 525 697 524 696 524 695 523 694 523 692 522 691 522 690 521 689 Z" fill="black"/>
<path d="M 207 493 204 496 204 497 203 498 203 508 204 509 204 511 205 512 205 514 206 515 206 517 207 518 207 520 208 521 208 524 209 525 209 527 210 528 210 530 211 531 211 533 212 534 212 536 213 537 213 539 214 540 214 542 215 543 215 546 216 547 216 549 217 550 217 552 218 553 218 555 219 556 219 558 220 559 220 562 221 563 221 565 222 566 222 568 223 569 223 571 224 572 224 574 225 575 225 578 226 579 226 581 227 582 227 584 228 585 228 587 229 588 229 589 230 590 230 591 231 592 232 592 233 593 237 593 238 592 239 592 240 591 240 590 242 588 242 587 244 585 244 584 245 583 245 582 247 580 247 579 249 577 249 576 250 575 250 574 252 572 252 571 254 569 254 568 256 566 256 565 257 564 258 564 259 565 260 565 261 566 262 566 263 567 264 567 265 568 266 568 267 569 268 569 269 570 270 570 271 571 272 571 273 572 274 572 275 573 276 573 277 574 278 574 280 576 281 576 282 577 283 577 284 578 285 578 286 579 287 579 288 580 289 580 290 581 291 581 292 582 293 582 294 583 295 583 296 584 297 584 298 585 299 585 300 586 301 586 302 587 303 587 304 588 305 588 306 589 307 589 309 591 310 591 311 592 312 592 313 593 314 593 315 594 316 594 317 595 318 595 319 596 320 596 321 597 322 597 323 598 324 598 325 599 326 599 327 600 328 600 329 601 330 601 331 602 332 602 333 603 334 603 335 604 336 604 338 606 339 606 340 607 341 607 342 608 343 608 344 609 345 609 346 610 347 610 348 611 349 611 350 612 351 612 352 613 353 613 354 614 355 614 356 615 357 615 358 616 359 616 360 617 361 617 362 618 363 618 365 620 366 620 367 621 369 621 371 623 372 623 373 624 374 624 375 625 376 625 377 626 378 626 379 627 380 627 381 628 382 628 383 629 384 629 385 630 386 630 387 631 388 631 389 632 390 632 391 633 392 633 393 634 394 634 395 635 396 635 397 636 398 636 399 637 400 637 402 639 403 639 404 640 405 640 406 641 407 641 408 642 409 642 410 643 411 643 412 644 413 644 414 645 415 645 416 646 417 646 419 648 420 648 421 649 422 649 423 650 424 650 426 652 427 652 429 654 430 654 435 659 436 659 440 663 440 664 444 668 444 669 446 671 446 672 447 673 447 674 448 675 448 676 449 677 449 679 450 680 450 683 451 684 451 689 452 690 452 701 451 702 451 707 450 708 450 710 449 711 449 713 448 714 448 715 447 716 447 717 446 718 446 719 445 720 445 721 443 723 443 724 441 726 441 727 440 728 440 729 438 731 438 732 437 733 437 734 435 736 435 737 434 738 434 739 432 741 432 742 431 743 431 744 429 746 429 747 427 749 427 750 426 751 426 752 424 754 424 755 423 756 423 757 421 759 421 760 420 761 420 762 418 764 418 765 416 767 416 768 415 769 415 770 413 772 413 773 411 775 411 776 410 777 410 778 408 780 408 781 407 782 407 783 405 785 405 786 403 788 403 789 402 790 402 791 400 793 400 794 399 795 399 796 397 798 397 799 395 801 395 802 394 803 394 804 392 806 392 807 390 809 390 810 389 811 389 812 387 814 387 815 385 817 385 818 384 819 384 820 382 822 382 823 380 825 380 826 379 827 379 828 377 830 377 831 375 833 375 834 374 835 374 836 372 838 372 839 370 841 370 842 369 843 369 844 367 846 367 847 366 848 366 849 364 851 364 852 363 853 363 854 361 856 361 857 359 859 359 860 358 861 358 862 356 864 356 865 354 867 354 868 353 869 353 870 351 872 351 873 349 875 349 876 348 877 348 878 346 880 346 881 344 883 344 884 343 885 343 886 342 887 342 892 346 896 377 896 378 895 379 895 384 890 384 889 385 888 385 887 386 886 386 885 387 884 387 883 389 881 389 880 390 879 390 878 391 877 391 876 392 875 392 874 394 872 394 871 395 870 395 869 396 868 396 867 397 866 397 865 398 864 398 863 399 862 399 861 401 859 401 858 402 857 402 856 403 855 403 854 404 853 404 852 406 850 406 849 407 848 407 847 408 846 408 845 409 844 409 843 410 842 410 841 411 840 411 839 412 838 412 837 413 836 413 835 414 834 414 833 416 831 416 830 417 829 417 828 418 827 418 826 419 825 419 824 420 823 420 822 421 821 421 820 422 819 422 818 424 816 424 815 425 814 425 813 426 812 426 811 427 810 427 809 428 808 428 807 429 806 429 805 431 803 431 802 432 801 432 800 433 799 433 798 434 797 434 796 435 795 435 794 436 793 436 792 437 791 437 790 438 789 438 788 439 787 439 786 441 784 441 783 442 782 442 781 443 780 443 779 444 778 444 777 445 776 445 775 446 774 446 773 447 772 447 771 448 770 448 769 449 768 449 767 450 766 450 765 452 763 452 762 453 761 453 760 454 759 454 758 455 757 455 756 456 755 456 754 457 753 457 752 458 751 458 750 459 749 459 748 460 747 460 746 462 744 462 743 463 742 463 741 464 740 464 739 465 738 465 737 466 736 466 735 467 734 467 733 468 732 468 731 470 729 470 728 471 727 471 726 472 725 472 724 473 723 473 722 475 720 475 719 476 718 476 717 477 716 477 715 479 713 479 712 480 711 480 710 482 708 482 707 483 706 483 705 484 704 484 703 486 701 486 700 488 698 488 697 489 696 489 695 491 693 491 692 492 691 492 690 494 688 494 687 495 686 495 685 498 682 498 681 508 671 509 671 511 669 512 669 513 670 514 670 527 683 527 684 528 685 528 686 530 688 530 689 531 690 531 691 533 693 533 694 535 696 535 697 536 698 536 699 538 701 538 702 539 703 539 704 541 706 541 707 542 708 542 709 544 711 544 712 545 713 545 714 547 716 547 717 548 718 548 719 549 720 549 721 550 722 550 723 552 725 552 726 553 727 553 728 554 729 554 730 555 731 555 732 557 734 557 735 558 736 558 737 559 738 559 739 560 740 560 741 561 742 561 743 562 744 562 745 564 747 564 748 565 749 565 750 566 751 566 752 567 753 567 754 568 755 568 756 569 757 569 758 571 760 571 761 572 762 572 763 573 764 573 765 574 766 574 767 575 768 575 769 576 770 576 771 577 772 577 773 578 774 578 775 579 776 579 777 580 778 580 779 582 781 582 782 583 783 583 784 584 785 584 786 585 787 585 788 586 789 586 790 587 791 587 792 588 793 588 794 589 795 589 796 590 797 590 798 591 799 591 800 592 801 592 802 594 804 594 805 595 806 595 807 596 808 596 809 597 810 597 811 598 812 598 813 599 814 599 815 600 816 600 817 601 818 601 819 603 821 603 822 604 823 604 824 605 825 605 826 606 827 606 828 607 829 607 830 608 831 608 832 609 833 609 834 610 835 610 836 612 838 612 839 613 840 613 841 614 842 614 843 615 844 615 845 616 846 616 847 617 848 617 849 618 850 618 851 619 852 619 853 621 855 621 856 622 857 622 858 623 859 623 860 624 861 624 862 625 863 625 864 626 865 626 866 627 867 627 868 628 869 628 870 629 871 629 872 631 874 631 875 632 876 632 877 633 878 633 879 634 880 634 881 635 882 635 883 637 885 637 886 638 887 638 888 639 889 639 890 644 895 645 895 646 896 678 896 681 893 681 892 682 891 682 889 681 888 681 886 680 885 680 884 678 882 678 881 677 880 677 879 675 877 675 876 673 874 673 873 672 872 672 871 670 869 670 868 668 866 668 865 667 864 667 863 665 861 665 860 663 858 663 857 662 856 662 855 660 853 660 852 658 850 658 849 657 848 657 847 655 845 655 844 653 842 653 841 652 840 652 839 650 837 650 836 648 834 648 833 647 832 647 831 645 829 645 828 643 826 643 825 642 824 642 823 640 821 640 820 638 818 638 817 637 816 637 815 635 813 635 812 633 810 633 809 632 808 632 807 630 805 630 804 629 803 629 802 627 800 627 799 625 797 625 796 624 795 624 794 622 792 622 791 621 790 621 789 619 787 619 786 617 784 617 783 616 782 616 781 614 779 614 778 613 777 613 776 611 774 611 773 609 771 609 770 608 769 608 768 606 766 606 765 605 764 605 763 603 761 603 760 602 759 602 758 600 756 600 755 599 754 599 753 597 751 597 750 595 748 595 747 594 746 594 745 592 743 592 742 591 741 591 740 589 738 589 737 588 736 588 735 586 733 586 732 585 731 585 730 583 728 583 727 582 726 582 725 581 724 581 723 579 721 579 720 578 719 578 718 577 717 577 716 576 715 576 714 575 713 575 712 574 711 574 709 573 708 573 706 572 705 572 700 571 699 571 690 572 689 572 684 573 683 573 681 574 680 574 678 575 677 575 675 576 674 576 673 577 672 577 671 579 669 579 668 582 665 582 664 589 657 590 657 593 654 594 654 596 652 597 652 599 650 600 650 601 649 602 649 604 647 605 647 606 646 607 646 608 645 609 645 610 644 611 644 612 643 613 643 614 642 615 642 616 641 617 641 618 640 619 640 621 638 622 638 623 637 625 637 627 635 628 635 629 634 630 634 631 633 632 633 633 632 634 632 635 631 636 631 637 630 638 630 639 629 640 629 641 628 642 628 643 627 644 627 645 626 646 626 647 625 648 625 649 624 650 624 651 623 652 623 653 622 654 622 655 621 656 621 657 620 658 620 660 618 661 618 662 617 663 617 664 616 665 616 666 615 667 615 668 614 669 614 670 613 671 613 672 612 673 612 674 611 675 611 676 610 677 610 678 609 679 609 680 608 681 608 682 607 683 607 684 606 685 606 686 605 687 605 688 604 689 604 690 603 691 603 693 601 694 601 695 600 696 600 697 599 698 599 699 598 700 598 701 597 702 597 703 596 704 596 705 595 706 595 707 594 708 594 709 593 710 593 711 592 712 592 713 591 714 591 715 590 716 590 717 589 718 589 719 588 720 588 721 587 722 587 723 586 724 586 725 585 726 585 727 584 728 584 729 583 730 583 731 582 732 582 734 580 735 580 736 579 737 579 738 578 739 578 740 577 741 577 742 576 743 576 744 575 745 575 746 574 747 574 748 573 749 573 750 572 751 572 752 571 753 571 754 570 755 570 756 569 757 569 758 568 759 568 760 567 761 567 762 566 763 566 764 565 765 565 766 564 768 566 768 567 770 569 770 570 772 572 772 573 774 575 774 576 776 578 776 579 777 580 777 581 779 583 779 584 781 586 781 587 783 589 783 590 786 593 790 593 791 592 792 592 794 590 794 589 795 588 795 586 796 585 796 583 797 582 797 580 798 579 798 577 799 576 799 573 800 572 800 570 801 569 801 567 802 566 802 564 803 563 803 560 804 559 804 557 805 556 805 554 806 553 806 550 807 549 807 547 808 546 808 544 809 543 809 541 810 540 810 537 811 536 811 534 812 533 812 531 813 530 813 528 814 527 814 524 815 523 815 521 816 520 816 518 817 517 817 515 818 514 818 511 819 510 819 508 820 507 820 499 819 498 819 497 818 496 818 495 817 494 816 494 815 493 724 493 723 494 722 494 721 495 721 496 720 497 720 502 721 503 721 504 727 510 727 511 736 520 736 521 737 522 736 523 735 523 733 525 732 525 731 526 730 526 729 527 728 527 727 528 726 528 725 529 724 529 723 530 722 530 721 531 720 531 719 532 718 532 717 533 716 533 715 534 714 534 713 535 712 535 710 537 709 537 708 538 707 538 706 539 705 539 704 540 703 540 702 541 701 541 700 542 699 542 698 543 697 543 696 544 695 544 694 545 693 545 692 546 691 546 690 547 689 547 688 548 687 548 686 549 685 549 684 550 683 550 682 551 681 551 680 552 679 552 678 553 677 553 676 554 675 554 673 556 672 556 671 557 670 557 669 558 668 558 667 559 666 559 665 560 664 560 663 561 662 561 661 562 660 562 659 563 658 563 657 564 656 564 655 565 654 565 653 566 652 566 651 567 650 567 649 568 648 568 647 569 646 569 645 570 644 570 642 572 641 572 640 573 639 573 638 574 637 574 636 575 635 575 634 576 633 576 632 577 631 577 630 578 629 578 628 579 627 579 626 580 625 580 624 581 623 581 622 582 621 582 620 583 619 583 618 584 617 584 616 585 615 585 614 586 613 586 611 588 610 588 609 589 608 589 607 590 606 590 605 591 604 591 603 592 602 592 601 593 600 593 599 594 598 594 597 595 596 595 595 596 594 596 593 597 592 597 591 598 590 598 589 599 588 599 587 600 586 600 585 601 584 601 583 602 582 602 581 603 580 603 578 605 577 605 576 606 575 606 574 607 573 607 572 608 571 608 570 609 569 609 568 610 567 610 566 611 565 611 564 612 563 612 562 613 561 613 560 614 559 614 558 615 557 615 556 616 555 616 554 617 553 617 552 618 551 618 550 619 549 619 548 620 547 620 546 621 545 621 544 622 543 622 542 623 541 623 540 624 539 624 538 625 537 625 536 626 535 626 534 627 533 627 532 628 531 628 530 629 529 629 528 630 527 630 526 631 525 631 524 632 523 632 522 633 521 633 520 634 519 634 518 635 517 635 516 636 515 636 514 637 513 637 512 638 511 638 510 637 509 637 508 636 507 636 506 635 505 635 504 634 503 634 502 633 501 633 500 632 499 632 498 631 497 631 496 630 495 630 494 629 493 629 492 628 491 628 490 627 489 627 488 626 487 626 486 625 485 625 484 624 483 624 482 623 481 623 480 622 479 622 478 621 477 621 476 620 475 620 474 619 473 619 472 618 471 618 470 617 469 617 468 616 467 616 465 614 463 614 462 613 461 613 459 611 458 611 457 610 456 610 455 609 454 609 453 608 452 608 451 607 450 607 449 606 448 606 447 605 446 605 445 604 444 604 443 603 442 603 441 602 440 602 439 601 438 601 437 600 436 600 435 599 434 599 432 597 431 597 430 596 429 596 428 595 427 595 426 594 425 594 424 593 423 593 422 592 421 592 420 591 419 591 418 590 417 590 416 589 415 589 414 588 413 588 412 587 411 587 410 586 409 586 407 584 406 584 405 583 404 583 403 582 402 582 401 581 400 581 399 580 398 580 397 579 396 579 395 578 394 578 393 577 392 577 391 576 390 576 389 575 388 575 387 574 386 574 385 573 384 573 383 572 382 572 380 570 379 570 378 569 377 569 376 568 375 568 374 567 373 567 372 566 371 566 370 565 369 565 368 564 367 564 366 563 365 563 364 562 363 562 362 561 361 561 360 560 359 560 358 559 357 559 355 557 354 557 353 556 352 556 351 555 350 555 349 554 348 554 347 553 346 553 345 552 344 552 343 551 342 551 341 550 340 550 339 549 338 549 337 548 336 548 335 547 334 547 333 546 332 546 330 544 329 544 328 543 327 543 326 542 325 542 324 541 323 541 322 540 321 540 320 539 319 539 318 538 317 538 316 537 315 537 314 536 313 536 312 535 311 535 310 534 309 534 308 533 307 533 305 531 304 531 303 530 302 530 301 529 300 529 299 528 298 528 297 527 296 527 295 526 294 526 293 525 292 525 291 524 290 524 289 523 288 523 287 522 287 521 294 514 294 513 302 505 302 504 304 502 304 497 303 496 303 495 302 494 301 494 300 493 Z" fill="black"/>
<path d="M 456 348 455 349 451 349 450 350 445 350 444 351 440 351 439 352 434 352 433 353 429 353 428 354 424 354 423 355 418 355 417 356 413 356 412 357 408 357 407 358 402 358 401 359 397 359 396 360 394 360 389 365 389 367 388 368 388 396 389 397 389 399 391 401 391 402 393 404 394 404 395 405 396 405 397 406 398 406 399 407 400 407 401 408 402 408 403 409 404 409 405 410 406 410 407 411 408 411 409 412 410 412 411 413 412 413 413 414 414 414 415 415 416 415 417 416 418 416 419 417 420 417 421 418 422 418 423 419 424 419 425 420 426 420 427 421 428 421 429 422 430 422 431 423 432 423 433 424 434 424 435 425 436 425 437 426 438 426 444 432 444 433 445 434 445 435 446 436 446 442 445 443 445 454 444 455 444 466 443 467 443 477 442 478 442 488 441 489 441 499 440 500 440 510 439 511 439 522 438 523 438 533 437 534 437 545 436 546 436 557 435 558 435 567 434 568 434 578 433 579 434 580 435 580 437 582 438 582 439 583 440 583 441 584 442 584 443 585 444 585 445 586 446 586 447 587 448 587 449 588 450 588 451 589 452 589 453 590 454 590 456 592 457 592 458 593 459 593 460 594 461 594 462 595 463 595 464 596 465 596 466 597 467 597 468 598 469 598 470 599 471 599 472 600 473 600 474 601 475 601 477 603 478 603 479 604 480 604 481 605 482 605 483 606 484 606 485 607 486 607 487 608 488 608 489 609 490 609 492 611 493 611 494 612 495 612 496 613 497 613 498 614 499 614 500 615 501 615 502 616 503 616 504 617 505 617 506 618 507 618 508 619 509 619 511 621 512 621 514 619 515 619 516 618 517 618 518 617 519 617 520 616 521 616 522 615 523 615 524 614 525 614 526 613 527 613 528 612 529 612 530 611 531 611 533 609 534 609 535 608 536 608 537 607 538 607 539 606 540 606 541 605 542 605 543 604 544 604 545 603 546 603 547 602 548 602 550 600 551 600 552 599 553 599 554 598 555 598 556 597 557 597 558 596 559 596 560 595 561 595 562 594 563 594 564 593 565 593 566 592 567 592 568 591 569 591 571 589 572 589 573 588 574 588 575 587 576 587 577 586 578 586 579 585 580 585 581 584 582 584 583 583 584 583 585 582 586 582 587 581 588 581 590 579 589 578 589 568 588 567 588 558 587 557 587 546 586 545 586 536 585 535 585 525 584 524 584 514 583 513 583 503 582 502 582 492 581 491 581 481 580 480 580 470 579 469 579 458 578 457 578 445 577 444 577 436 578 435 578 434 579 433 579 432 583 428 584 428 586 426 587 426 588 425 589 425 590 424 591 424 592 423 593 423 594 422 595 422 596 421 597 421 598 420 599 420 600 419 601 419 602 418 603 418 604 417 605 417 606 416 607 416 608 415 609 415 610 414 611 414 612 413 613 413 614 412 615 412 616 411 617 411 618 410 619 410 620 409 621 409 622 408 623 408 624 407 625 407 626 406 627 406 628 405 629 405 631 403 632 403 632 402 634 400 634 399 635 398 635 366 634 365 634 364 631 361 630 361 629 360 627 360 626 359 622 359 621 358 617 358 616 357 611 357 610 356 606 356 605 355 600 355 599 354 595 354 594 353 590 353 589 352 584 352 583 351 578 351 577 350 573 350 572 349 567 349 566 348 Z" fill="black"/>
<path d="M 511 174 510 175 507 175 506 176 505 176 504 177 503 177 499 181 499 182 498 183 498 184 497 185 497 195 498 196 498 197 503 202 503 214 502 215 435 215 434 216 432 216 431 217 429 217 428 218 427 218 426 219 424 219 423 220 421 220 420 221 419 221 418 222 416 222 415 223 414 223 413 224 411 224 410 225 409 225 408 226 406 226 405 227 403 227 402 228 401 228 400 229 398 229 397 230 396 230 395 231 393 231 392 232 390 232 389 233 388 233 387 234 385 234 384 235 383 235 382 236 380 236 379 237 378 237 377 238 375 238 374 239 373 239 372 240 370 240 369 241 367 241 364 244 364 246 363 247 363 250 364 251 364 252 365 253 365 254 366 255 366 256 367 257 367 258 368 259 368 260 369 261 369 263 370 264 370 265 371 266 371 267 372 268 372 269 373 270 373 271 374 272 374 273 376 275 376 277 378 279 378 280 379 281 379 282 380 283 380 284 381 285 381 286 382 287 382 288 383 289 383 290 384 291 384 292 385 293 385 294 386 295 386 297 387 298 387 299 389 301 389 302 390 303 390 304 392 306 392 307 393 308 393 309 394 310 394 311 395 312 395 313 396 314 396 315 398 317 398 318 399 319 399 320 400 321 400 322 401 323 401 324 402 325 402 332 403 333 403 343 404 344 408 344 409 343 412 343 413 342 418 342 419 341 423 341 424 340 428 340 429 339 434 339 435 338 439 338 440 337 444 337 445 336 449 336 450 335 453 335 454 334 569 334 570 335 574 335 575 336 579 336 580 337 584 337 585 338 590 338 591 339 595 339 596 340 601 340 602 341 606 341 607 342 612 342 613 343 617 343 618 344 619 343 620 343 620 335 621 334 621 327 622 326 622 324 623 323 623 322 624 321 624 320 626 318 626 317 627 316 627 315 628 314 628 313 629 312 629 311 630 310 630 309 632 307 632 306 633 305 633 304 634 303 634 302 635 301 635 300 637 298 637 297 638 296 638 295 639 294 639 293 640 292 640 291 641 290 641 289 642 288 642 287 643 286 643 285 644 284 644 283 645 282 645 281 647 279 647 278 648 277 648 276 649 275 649 274 650 273 650 272 651 271 651 270 652 269 652 268 653 267 653 266 654 265 654 264 655 263 655 261 656 260 656 259 657 258 657 257 658 256 658 255 659 254 659 252 660 251 660 247 659 246 659 245 658 244 658 243 657 242 656 242 655 241 654 241 653 240 651 240 650 239 649 239 648 238 646 238 645 237 644 237 643 236 641 236 640 235 638 235 637 234 636 234 635 233 633 233 632 232 631 232 630 231 628 231 627 230 625 230 624 229 623 229 622 228 620 228 619 227 618 227 617 226 615 226 614 225 612 225 611 224 610 224 609 223 607 223 606 222 605 222 604 221 602 221 601 220 599 220 598 219 597 219 596 218 594 218 593 217 592 217 591 216 589 216 588 215 522 215 521 214 521 202 525 198 525 197 526 196 526 194 527 193 527 185 526 184 526 183 525 182 525 181 521 177 520 177 519 176 518 176 517 175 515 175 514 174 Z" fill="black"/>
<path d="M 500 137 499 138 495 138 494 139 491 139 490 140 487 140 486 141 485 141 484 142 482 142 481 143 480 143 479 144 478 144 476 146 475 146 474 147 473 147 472 148 471 148 470 149 469 149 464 154 464 156 463 157 463 159 464 160 464 162 465 163 465 164 466 165 466 166 467 166 469 168 477 168 478 167 479 167 481 165 482 165 485 162 486 162 488 160 489 160 490 159 491 159 492 158 494 158 495 157 497 157 498 156 500 156 501 155 506 155 507 154 518 154 519 155 524 155 525 156 527 156 528 157 530 157 531 158 532 158 533 159 534 159 535 160 536 160 537 161 538 161 541 164 542 164 546 168 555 168 556 167 557 167 559 165 559 164 560 163 560 162 561 161 561 156 560 155 560 154 559 153 559 152 558 151 557 151 555 149 554 149 553 148 552 148 551 147 550 147 548 145 547 145 546 144 545 144 544 143 543 143 542 142 540 142 539 141 538 141 537 140 535 140 534 139 531 139 530 138 526 138 525 137 Z" fill="black"/>
<path d="M 500 101 499 102 493 102 492 103 487 103 486 104 483 104 482 105 479 105 478 106 476 106 475 107 473 107 472 108 471 108 470 109 468 109 467 110 466 110 465 111 464 111 463 112 462 112 461 113 460 113 459 114 458 114 457 115 456 115 454 117 453 117 451 119 450 119 448 121 447 121 444 124 443 124 438 129 438 130 437 131 437 135 438 136 438 138 443 143 445 143 446 144 447 144 448 143 451 143 459 135 460 135 462 133 463 133 465 131 466 131 467 130 468 130 469 129 470 129 471 128 472 128 473 127 475 127 476 126 477 126 478 125 480 125 481 124 483 124 484 123 487 123 488 122 491 122 492 121 496 121 497 120 508 120 509 119 515 119 516 120 525 120 526 121 531 121 532 122 536 122 537 123 539 123 540 124 542 124 543 125 545 125 546 126 547 126 548 127 549 127 550 128 552 128 553 129 554 129 556 131 557 131 558 132 559 132 560 133 561 133 563 135 564 135 566 137 567 137 573 143 575 143 576 144 578 144 579 143 582 143 585 140 585 139 586 138 586 136 587 135 587 132 586 131 586 130 585 129 585 128 582 125 581 125 578 122 577 122 574 119 573 119 571 117 570 117 569 116 568 116 566 114 565 114 564 113 563 113 562 112 561 112 560 111 559 111 558 110 556 110 555 109 554 109 553 108 551 108 550 107 548 107 547 106 545 106 544 105 542 105 541 104 537 104 536 103 532 103 531 102 525 102 524 101 Z" fill="black"/>

</svg>